Coordinates
version=1
nRows=21
nColumns=12
inDegrees=yes

Units are S.I. units (second, meters, Newtons, ...)
Angles are in degrees

endheader
time	SC_y	SC_z	SC_x	AC_y	AC_z	AC_x	GH_y	GH_z	GH_yy	EL_x	PS_y
       0.0              -56.67          26.43          37.29          58.93         -4.661         -1.857         -1.472         -10.76           57.7          81.68          103.5
  0.009433              -56.67          26.43          37.29          58.93         -4.659         -1.856         -1.463         -10.75          57.68          81.69          103.5
   0.01887              -56.66          26.43          37.29          58.93         -4.657         -1.854         -1.454         -10.73          57.66          81.69          103.5
    0.0283              -56.65          26.43          37.28          58.92         -4.654         -1.853         -1.445         -10.72          57.65          81.69          103.5
   0.03773              -56.64          26.43          37.28          58.92         -4.652         -1.851         -1.434         -10.71          57.63          81.69          103.5
   0.04717              -56.63          26.43          37.28          58.92         -4.649         -1.849         -1.423         -10.69           57.6           81.7          103.5
    0.0566              -56.63          26.43          37.28          58.91         -4.647         -1.848         -1.411         -10.67          57.58           81.7          103.5
   0.06603              -56.62          26.43          37.28          58.91         -4.644         -1.846         -1.399         -10.66          57.56           81.7          103.5
   0.07547              -56.61          26.43          37.27           58.9         -4.641         -1.844         -1.385         -10.64          57.53           81.7          103.4
    0.0849              -56.59          26.43          37.27           58.9         -4.637         -1.841         -1.371         -10.62           57.5          81.71          103.4
   0.09433              -56.58          26.43          37.27          58.89         -4.634         -1.839         -1.355         -10.59          57.47          81.71          103.4
    0.1038              -56.57          26.43          37.26          58.88          -4.63         -1.836         -1.339         -10.57          57.44          81.72          103.4
    0.1132              -56.56          26.43          37.26          58.88         -4.626         -1.834         -1.321         -10.54           57.4          81.72          103.4
    0.1226              -56.54          26.43          37.26          58.87         -4.621         -1.831         -1.301         -10.52          57.36          81.72          103.4
    0.1321              -56.52          26.43          37.25          58.86         -4.616         -1.827          -1.28         -10.49          57.32          81.73          103.3
    0.1415              -56.51          26.43          37.25          58.85         -4.611         -1.824         -1.257         -10.45          57.28          81.74          103.3
    0.1509              -56.49          26.43          37.24          58.84         -4.605          -1.82         -1.232         -10.42          57.23          81.74          103.3
    0.1604              -56.47          26.43          37.24          58.83         -4.599         -1.816         -1.205         -10.38          57.18          81.75          103.3
    0.1698              -56.45          26.43          37.23          58.82         -4.592         -1.811         -1.176         -10.34          57.12          81.75          103.2
    0.1792              -56.42          26.43          37.23          58.81         -4.584         -1.807         -1.144         -10.29          57.06          81.76          103.2
    0.1887              -56.39          26.43          37.22          58.79         -4.576         -1.801         -1.108         -10.24          56.99          81.77          103.2
